PathFileType	4	(X/Y/Z)	s11c0403.trc
DataRate	CameraRate	NumFrames	NumMarkers	Units	OrigDataRate	OrigDataStartFrame	OrigNumFrames
200	200	7	48	mm	200	1000	2000
Frame#	Time	racr			lacr			c7			jug			rlel			rdr			llel			ldr			s2			lic			ric			lasi			rasi			rpsi			lpsi			rgt			lgt			rth1			rth2			rth3			rth4			rlfc			rmfc			rsh1			rsh2			rsh3			rsh4			rlmal			rcal			rtoe			rmt5			lth1			lth2			lth4			lth3			llfc			lmfc			llmal			lcal			lmt5			lsh1			lsh2			lsh3			lsh4			ltoe			SBIKE			LBIKE			RBIKE			
		X1	Y1	Z1	X2	Y2	Z2	X3	Y3	Z3	X4	Y4	Z4	X5	Y5	Z5	X6	Y6	Z6	X7	Y7	Z7	X8	Y8	Z8	X9	Y9	Z9	X10	Y10	Z10	X11	Y11	Z11	X12	Y12	Z12	X13	Y13	Z13	X14	Y14	Z14	X15	Y15	Z15	X16	Y16	Z16	X17	Y17	Z17	X18	Y18	Z18	X19	Y19	Z19	X20	Y20	Z20	X21	Y21	Z21	X22	Y22	Z22	X23	Y23	Z23	X24	Y24	Z24	X25	Y25	Z25	X26	Y26	Z26	X27	Y27	Z27	X28	Y28	Z28	X29	Y29	Z29	X30	Y30	Z30	X31	Y31	Z31	X32	Y32	Z32	X33	Y33	Z33	X34	Y34	Z34	X35	Y35	Z35	X36	Y36	Z36	X37	Y37	Z37	X38	Y38	Z38	X39	Y39	Z39	X40	Y40	Z40	X41	Y41	Z41	X42	Y42	Z42	X43	Y43	Z43	X44	Y44	Z44	X45	Y45	Z45	X46	Y46	Z46	X47	Y47	Z47	X48	Y48	Z48	
1000	5.0000	806.627195	1335.392975	-49.129137	802.884802	1356.942448	-399.943718	794.657097	1472.777599	-218.504639	774.659675	1291.061724	-234.117918	604.648390	1141.298442	43.073424	770.785273	973.651847	-68.386327	594.834997	1187.748716	-554.989831	773.160059	950.286424	-472.416503	200.216227	1318.939606	-271.184927	416.754644	1274.950196	-462.923043	404.362568	1302.680305	-61.118556	433.705377	1202.269226	-425.015662	426.851863	1227.543606	-95.355491	254.612700	1390.451072	-224.928342	256.917675	1375.816314	-316.841545	349.652731	1189.033593	-38.687694	279.505499	1156.894610	-466.048028	444.948575	1083.609188	-39.950270	523.615712	1036.322942	-55.244894	565.053335	959.098929	-65.892743	548.461963	1061.117079	-69.250769	640.936577	879.461780	-86.813988	637.706281	860.006782	-218.572682	550.298311	742.349446	-72.462464	513.055185	663.738496	-89.881546	443.413090	611.644026	-88.790183	532.966832	652.049986	-122.543016	341.302039	508.799098	-100.728000	270.257698	515.902026	-146.076898	524.254239	380.008955	-151.760086	451.605196	380.103677	-80.080309	321.699323	1019.267165	-484.207822	362.517945	944.645146	-480.980282	398.366591	952.108634	-475.812375	360.371310	854.637155	-478.117220	379.802346	717.822195	-460.633076	400.543311	702.131196	-335.033246	85.534885	407.957111	-422.717670	26.804412	422.470709	-384.412245	119.977633	236.619030	-452.765447	290.892363	627.405168	-475.587938	254.250626	552.451730	-457.682448	182.191666	502.211851	-449.166711	281.072535	533.551156	-436.711960	201.813986	179.834290	-386.576834	-177.191783	971.847819	-169.610328	-18.021208	81.381407	-460.674722	-17.967225	81.116331	-61.861836	
1001	5.0050	807.445133	1335.321895	-49.172028	801.799223	1357.007160	-401.412425	795.528647	1473.205318	-219.345836	775.690431	1291.917396	-234.932552	603.387957	1141.909807	42.213451	770.150152	973.777646	-67.949783	594.006637	1188.130055	-555.058900	773.023116	950.535947	-473.434297	200.567994	1320.206322	-269.881487	416.503905	1277.398099	-462.045267	404.756641	1301.368652	-60.451308	433.889664	1204.243808	-424.822415	426.305655	1225.650402	-94.389014	255.498271	1391.021971	-222.859670	257.475262	1377.151337	-314.950189	348.061914	1187.085097	-38.924656	280.949338	1158.759531	-467.272173	444.546412	1078.780883	-42.309276	519.575461	1031.086403	-54.867404	560.038038	953.516769	-65.844395	543.160253	1055.612869	-66.890487	633.873960	871.655055	-86.485496	630.771638	852.318053	-217.838702	544.883618	732.872136	-72.734218	509.480619	653.595426	-90.418097	440.992994	599.744918	-89.224962	529.391473	642.460646	-123.392319	341.195335	495.983927	-101.226163	269.844021	501.179886	-146.688463	527.629889	372.438389	-151.411393	454.756331	370.608208	-79.892136	325.595900	1021.079478	-485.279959	368.140148	947.486141	-482.505708	403.781841	955.738473	-477.029633	368.180996	857.354321	-480.442690	389.297594	720.697613	-462.928392	410.179709	704.714644	-337.690839	87.396120	418.597935	-423.659077	29.416090	434.992874	-385.171168	116.515066	245.814976	-452.646003	298.181987	632.371594	-477.313120	259.691083	558.443596	-459.075959	186.413225	509.992257	-450.318630	286.068750	538.883205	-438.029326	196.511571	186.713891	-386.382039	-177.257839	971.466363	-170.158730	-18.011621	81.334677	-460.672752	-17.997263	81.053627	-61.838291	
1002	5.0100	808.122072	1335.474606	-48.937435	801.548750	1358.969219	-403.581969	796.235991	1473.675199	-220.140316	776.991774	1292.891165	-236.100149	602.435534	1142.469575	41.330362	769.542357	973.914555	-67.278283	593.203746	1188.476908	-555.145520	772.619063	950.597302	-474.400932	201.624552	1320.605156	-268.902673	416.257757	1279.568126	-461.213156	405.450367	1299.598004	-59.653003	434.086232	1206.066928	-424.688628	425.989990	1223.551643	-93.687174	256.342589	1391.081333	-220.807923	257.938233	1378.293769	-313.015396	346.481865	1184.823482	-39.297877	281.920036	1160.266915	-467.690705	441.680203	1074.517035	-42.457968	515.733002	1025.381385	-54.717123	554.655191	947.324306	-65.833039	540.506140	1049.510028	-66.571472	626.460732	863.329404	-86.158746	623.366292	844.243102	-216.867870	539.373754	723.112286	-73.108931	505.627611	642.983161	-91.143605	438.440374	587.773714	-89.847713	525.485297	632.493985	-124.409472	340.933641	483.151655	-101.786063	269.516864	486.532670	-147.617169	530.304098	364.050902	-150.902178	457.160706	360.654658	-79.716033	329.584136	1022.927344	-486.293675	373.986447	950.273032	-483.854413	409.338142	959.248907	-478.235474	375.900163	860.022698	-482.473061	398.923091	723.622010	-464.964923	420.084637	707.714211	-339.985263	89.887521	429.329523	-424.565440	32.488677	447.247234	-385.481729	113.739971	255.496485	-452.648735	305.732217	637.374373	-478.810347	265.477918	564.387550	-460.301932	191.058048	517.857034	-451.464947	291.387170	544.413412	-439.319610	191.822869	193.936566	-386.284995	-177.442492	971.330554	-170.361234	-18.022204	81.451230	-460.633395	-18.000349	81.037632	-61.826608	
1003	5.0150	808.862980	1335.746189	-48.609218	802.482697	1361.661801	-406.907991	797.014998	1474.333239	-221.021823	778.403387	1294.202600	-237.597190	601.708167	1143.257128	40.414398	768.953241	974.192151	-66.472749	592.716861	1188.795242	-555.286319	772.009883	950.395126	-475.111443	202.393443	1321.456253	-267.155731	416.008372	1281.511607	-460.376542	406.146917	1297.394432	-58.938509	434.169879	1207.550080	-424.588816	426.021755	1221.159311	-93.117797	257.664418	1391.506803	-218.751175	258.199895	1379.287037	-311.011772	344.912220	1182.158581	-39.628126	282.900608	1161.520194	-467.996684	438.406384	1069.846181	-42.177961	511.641830	1019.641946	-54.365020	549.185022	940.937740	-65.824591	536.695854	1043.633828	-64.691409	618.815878	854.702335	-86.006338	614.962591	835.844382	-217.263411	533.688110	712.814146	-73.422296	501.565182	632.144303	-91.860505	435.697967	575.381193	-90.585142	521.521112	622.431865	-125.325995	340.333414	470.298390	-102.261228	269.103654	472.289808	-148.505110	532.325316	355.051733	-150.306301	458.994337	350.384405	-79.537327	333.867532	1024.738411	-487.155198	379.848948	953.152693	-485.186997	415.003230	962.944218	-479.423920	383.823654	862.899009	-484.423181	408.565727	726.776633	-466.632842	430.196573	710.757883	-341.784097	93.041886	440.056610	-425.325375	36.289286	459.402696	-385.831830	111.618096	265.124332	-452.504088	313.514334	642.574136	-480.268048	271.596244	570.569644	-461.449673	196.052248	525.868303	-452.441719	296.974636	550.225419	-440.576103	187.752693	201.350663	-386.288039	-177.600861	971.207334	-170.642949	-18.020500	81.328701	-460.687846	-18.020231	81.010143	-61.841471	
1004	5.0200	809.511902	1336.124114	-48.342662	801.272657	1364.377013	-408.480781	797.630877	1475.537764	-222.244469	780.829194	1295.593102	-239.404889	601.321213	1143.932102	39.590516	768.542504	974.500530	-65.577861	591.023822	1188.275302	-555.364875	770.874343	949.939706	-475.707338	203.070346	1321.681192	-265.726533	415.807608	1283.500555	-459.557789	407.068029	1294.688351	-58.175921	434.245594	1208.621233	-424.559072	426.378276	1218.633939	-92.711037	258.450171	1391.326728	-216.547837	258.153583	1380.174327	-308.913953	343.426351	1179.280187	-40.056664	284.039369	1162.792403	-468.233057	434.671154	1065.313008	-40.931373	507.500031	1013.566816	-53.962249	543.477731	934.032012	-66.049728	533.791217	1035.977925	-67.776290	610.894760	845.880886	-85.732157	607.346803	827.227390	-215.318618	527.818388	702.306516	-73.807235	497.162141	621.332589	-92.381509	432.591225	563.018565	-91.443800	517.217128	612.165983	-126.283518	339.682346	457.598924	-102.914718	268.578449	458.466156	-149.420731	533.955186	345.221778	-150.046452	460.170798	339.609937	-79.393166	338.294142	1026.676342	-487.873670	385.845556	956.054782	-486.327905	420.731939	966.526948	-480.504251	391.956104	866.130235	-486.273986	418.358196	730.002914	-468.283045	440.422232	713.945548	-343.295246	96.699400	450.703277	-425.928158	40.684377	471.668318	-386.167219	110.169529	275.317879	-452.896203	321.438498	647.910842	-481.613687	277.959687	576.962075	-462.527760	201.471192	533.877292	-453.340795	302.891807	556.085295	-441.693913	184.319932	209.050569	-386.208303	-177.272126	971.340085	-170.325194	-18.024846	81.294399	-460.711120	-18.012037	80.997626	-61.838620	
1005	5.0250	810.227552	1336.543278	-48.115357	800.634548	1367.110444	-409.743686	798.315930	1476.788494	-223.416913	782.094848	1296.774618	-240.878483	601.127989	1144.792213	38.754716	768.420103	974.911076	-64.700911	589.725230	1187.460151	-555.489153	769.579163	949.050797	-475.789064	203.701513	1321.617243	-264.349706	415.603334	1285.276753	-458.733807	408.165556	1291.605854	-57.533811	434.272272	1209.739056	-424.518871	426.966613	1215.717239	-92.530337	259.746932	1390.507600	-214.549389	258.764272	1380.030811	-306.961842	342.016413	1175.921563	-40.520133	285.445063	1163.905523	-468.478142	432.208748	1059.727605	-41.922917	503.427637	1007.105838	-53.655305	537.856917	926.968057	-66.147309	530.075586	1029.679385	-66.726522	602.754191	836.852121	-85.435813	598.963388	818.124036	-214.286719	521.558290	691.754336	-74.157462	492.530277	610.285944	-93.105120	429.129263	550.657101	-92.518550	512.627600	601.679966	-127.168890	338.828533	444.992064	-103.923886	267.983873	445.101216	-150.235590	534.870639	335.733725	-149.172129	460.819150	328.708698	-79.274327	342.924443	1028.671049	-488.488434	391.964736	958.931644	-487.323644	426.409289	969.976692	-481.264174	399.901369	869.287513	-488.050805	428.164996	733.331860	-469.698204	450.668352	717.377278	-344.726738	100.967094	461.284688	-426.382702	45.783703	483.664190	-386.378802	109.415607	285.320130	-452.956698	329.538504	653.457240	-482.715276	284.587259	583.400636	-463.374746	207.226085	542.033904	-454.011431	309.113953	561.802241	-442.724123	181.613874	216.915524	-386.138625	-177.647346	971.097626	-170.951767	-18.022391	81.312276	-460.698123	-18.021184	80.981071	-61.850847	
1006	5.0300	810.897230	1337.090978	-48.090145	799.843145	1369.839310	-410.785856	798.788382	1478.204842	-224.396857	783.169940	1298.186393	-242.409315	601.239285	1145.579827	37.955773	768.558915	975.420559	-63.857969	588.623442	1186.206720	-555.593279	768.720019	948.100699	-475.477918	204.260104	1321.247556	-262.993465	415.422582	1286.913320	-457.938549	409.208265	1287.957996	-57.207489	434.310313	1210.617560	-424.394947	427.860182	1212.695373	-92.333699	260.604983	1389.332493	-212.121821	258.969559	1380.087627	-304.604248	340.721845	1172.278173	-41.043994	286.912749	1164.953651	-468.636811	429.228162	1054.525135	-42.044488	499.227311	1000.602100	-53.291400	532.179385	919.675587	-66.278475	526.453607	1022.571464	-66.277618	594.273931	827.789580	-84.995270	591.134463	808.801051	-214.400333	515.020569	681.413299	-74.400927	487.766917	599.298532	-93.870834	425.326602	538.639890	-93.556020	507.922764	591.351491	-127.766939	337.600234	432.704064	-104.787331	267.076316	432.304370	-150.897065	534.755343	325.421979	-148.973866	460.787840	317.693008	-79.191698	347.882344	1030.616398	-488.913522	398.105803	961.921664	-488.152255	432.297324	973.599490	-482.152417	407.829548	872.290982	-489.141335	437.998480	736.990397	-470.828286	460.888033	720.956335	-345.893884	105.882186	471.776826	-426.831494	51.558785	495.491760	-386.572698	109.401713	295.331581	-453.063493	337.876677	659.108935	-483.662939	291.513085	589.968075	-464.212854	213.391239	550.154563	-454.599245	315.700684	567.948280	-443.699864	179.516043	224.919928	-386.160901	-177.385111	971.593041	-169.865916	-17.990069	81.292387	-460.720931	-18.014306	80.986663	-61.857202	
